<svg width="20" height="21" viewBox="0 0 20 21" fill="none" xmlns="http://www.w3.org/2000/svg">
<path d="M19 4.50022H14V2.83022C13.9765 2.19004 13.7002 1.58528 13.2316 1.14851C12.7629 0.711745 12.1402 0.478612 11.5 0.500219H8.5C7.85976 0.478612 7.23706 0.711745 6.76843 1.14851C6.2998 1.58528 6.02346 2.19004 6 2.83022V4.50022H1C0.734784 4.50022 0.48043 4.60558 0.292893 4.79311C0.105357 4.98065 0 5.235 0 5.50022C0 5.76544 0.105357 6.01979 0.292893 6.20733C0.48043 6.39486 0.734784 6.50022 1 6.50022H2V17.5002C2 18.2959 2.31607 19.0589 2.87868 19.6215C3.44129 20.1842 4.20435 20.5002 5 20.5002H15C15.7957 20.5002 16.5587 20.1842 17.1213 19.6215C17.6839 19.0589 18 18.2959 18 17.5002V6.50022H19C19.2652 6.50022 19.5196 6.39486 19.7071 6.20733C19.8946 6.01979 20 5.76544 20 5.50022C20 5.235 19.8946 4.98065 19.7071 4.79311C19.5196 4.60558 19.2652 4.50022 19 4.50022ZM8 14.5002C8 14.7654 7.89464 15.0198 7.70711 15.2073C7.51957 15.3949 7.26522 15.5002 7 15.5002C6.73479 15.5002 6.48043 15.3949 6.29289 15.2073C6.10536 15.0198 6 14.7654 6 14.5002V10.5002C6 10.235 6.10536 9.98065 6.29289 9.79311C6.48043 9.60558 6.73479 9.50022 7 9.50022C7.26522 9.50022 7.51957 9.60558 7.70711 9.79311C7.89464 9.98065 8 10.235 8 10.5002V14.5002ZM8 2.83022C8 2.67022 8.21 2.50022 8.5 2.50022H11.5C11.79 2.50022 12 2.67022 12 2.83022V4.50022H8V2.83022ZM14 14.5002C14 14.7654 13.8946 15.0198 13.7071 15.2073C13.5196 15.3949 13.2652 15.5002 13 15.5002C12.7348 15.5002 12.4804 15.3949 12.2929 15.2073C12.1054 15.0198 12 14.7654 12 14.5002V10.5002C12 10.235 12.1054 9.98065 12.2929 9.79311C12.4804 9.60558 12.7348 9.50022 13 9.50022C13.2652 9.50022 13.5196 9.60558 13.7071 9.79311C13.8946 9.98065 14 10.235 14 10.5002V14.5002Z" fill="white"/>
</svg>
